<svg xmlns="http://www.w3.org/2000/svg" width="48" height="48" xmlns:v="https://vecta.io/nano"><path fill="#00c853" d="M4,23C4,11.954,12.954,3,24,3s20,8.954,20,20l-20,2L4,23z"/><path fill="#00e676" d="M44,23c0,11.046-8.954,20-20,20S4,34.046,4,23H44z"/><path fill="#c2eafd" d="M39.29 42.34v3.16a.48.48 0 0 1-.25.43c-.14.09-.33.1-.5 0l-2.72-1.59-4.68-8.15-2-3.47-3.75-6.52 2.93-2.93 3.99 6.94 2.07 3.6 4.91 8.53z"/><path fill="#9addfb" d="M31.231 28.335a9.05 9.05 0 0 1-3.092 2.648l3.991 6.941c1.185-.648 2.272-1.446 3.265-2.346l-4.164-7.243z"/><path fill="#c2eafd" d="M39 23a14.93 14.93 0 0 1-4.62 10.81c-.96.93-2.05 1.73-3.24 2.38C29.02 37.34 26.59 38 24 38c-2.53 0-4.96-.62-7.14-1.81l-4.68 8.15-2.72 1.59c-.17.1-.36.09-.5 0a.48.48 0 0 1-.25-.43v-3.16l10.97-19.07 2.93 2.93-3.75 6.53C20.43 33.56 22.18 34 24 34c1.86 0 3.61-.46 5.14-1.28a10.9 10.9 0 0 0 3.17-2.51C33.99 28.27 35 25.76 35 23h4z"/><path fill="#37474f" d="M28.5 13H26v-3h-4v3h-2.5a1.5 1.5 0 0 0-1.5 1.5V23l4.932 4.932a1.51 1.51 0 0 0 2.135 0L30 23v-8.5a1.5 1.5 0 0 0-1.5-1.5zM24 22a2.5 2.5 0 1 1 0-5 2.5 2.5 0 1 1 0 5z"/></svg>