<svg xmlns="http://www.w3.org/2000/svg" fill="#000000" width="50" height="50" xmlns:v="https://vecta.io/nano"><path d="M11 14A11.04 11.04 0 0 0 0 25a11.04 11.04 0 0 0 11 11c4.418 0 8.125-2.687 10.719-5.281A28.69 28.69 0 0 0 25 26.75a28.69 28.69 0 0 0 3.281 3.969C30.875 33.313 34.582 36 39 36a11.04 11.04 0 0 0 11-11 11.04 11.04 0 0 0-11-11c-4.418 0-8.125 2.688-10.719 5.281-1.488 1.488-2.582 2.93-3.281 3.938-.695-1.008-1.75-2.453-3.219-3.937C19.211 16.684 15.508 14 11 14zm0 2c3.695 0 6.996 2.316 9.375 4.719 1.984 2.004 3.063 3.676 3.438 4.281-.391.613-1.527 2.277-3.531 4.281C17.875 31.688 14.582 34 11 34c-4.953 0-9-4.047-9-9s4.047-9 9-9zm28 0c4.953 0 9 4.047 9 9s-4.047 9-9 9c-3.582 0-6.875-2.312-9.281-4.719-2.004-2.004-3.141-3.668-3.531-4.281.391-.613 1.527-2.277 3.531-4.281C32.125 18.313 35.418 16 39 16zm-1 5v3h-3v2h3v3h2v-3h3v-2h-3v-3zM7 24v2h8v-2z"/></svg>