<svg xmlns="http://www.w3.org/2000/svg" width="744.094" height="467.717" xmlns:v="https://vecta.io/nano"><path d="M39.813 370.358c-5.711.179-10.803 3.551-12.156 9.75l-9.937 69.063h21.594l5.781-47.469 21.719 38.219c6.572 8.315 20.788 7.51 25.75 0l21.594-37.406 5.906 46.656h22.375l-10.844-69.062c-8.315-13.277-20.803-9.908-27.375-2.531L80.095 419.14l-25.906-41.562c-3.835-5.029-9.336-7.377-14.375-7.219zm333.032 18.875c-8.315 0-17.437 6.708-17.437 14.219v31.5c0 7.51 6.724 14.219 15.844 14.219h24.938 23.344c7.376 0 16.625-5.904 16.625-14.219v-29.906c0-7.51-8.316-15.812-18.375-15.812H396.19h-23.344zm10.875 15.813h12.469 13.281c4.158 0 6.719 3.366 6.719 6.719v16.625c0 4.023-2.553 4.969-5.906 4.969h-14.094-15.031c-3.353 0-5.75-.945-5.75-4.969v-16.625c0-4.158 4.155-6.719 8.313-6.719zm-182.25-15c-9.12 0-18.25 8.318-18.25 14.219v32.313c0 4.292 6.693 12.594 15.813 12.594h50.719c5.901.805 10.031-3.349 10.031-9.25v-6.562H208.97c-4.962.805-7.5-3.35-7.5-8.312v-10.062c0-4.158 3.342-9.125 7.5-9.125h49.875v-8.312c0-4.962-3.193-7.5-9.094-7.5H201.47zm68.25-.001v59.125h17.438l.938-15h19.844 12.469c3.353 0 5.914 1.592 6.719 5.75v9.25h17.438v-14.219c0-7.51-7.531-9.094-7.531-9.094s7.539-3.358 8.344-9.125v-14.219c-.805-6.572-6.6-11.53-11.562-12.469h-25.875-38.219zm18.375 15h19.844 15.844c1.743 0 4.156 2.555 4.156 4.969v4.969c0 2.548-1.616 4.156-4.969 4.156h-15.031-20.781l.938-14.094zm175.437-14.999c-9.12 0-18.25 7.513-18.25 14.219v32.313c.805 5.096 6.559 12.594 15.812 12.594l50.687.813c5.767 0 9.938-4.161 9.938-10.062v-5.75h-50.687c-4.962 0-7.5-3.35-7.5-8.312v-10.875c0-4.158 3.342-9.125 7.5-9.125h49.875v-8.312c0-4.962-3.358-7.5-9.125-7.5h-48.25zm68.25 0v59.125h19.188v-21.719h35.656v21.719h20v-59.125h-20v20.781H550.97v-20.781h-19.187zm-379.281.937v58.188h19.063v-58.187h-19.062zm464.969 0v58.188h19.063v-58.187H617.47zm31.531 0v58.188h18.375v-15h19.969 25.75c5.767 0 13.281-7.522 13.281-14.094v-14.219c0-7.51-6.56-14.875-14.875-14.875h-24.156-38.344zm17.563 14.063h20.781 16.625c2.548 0 4.156 2.555 4.156 4.969v4.969c0 2.548-1.585 5.094-4.937 5.094h-15.844-19.969l-.812-15.031z" fill="#231f20" fill-rule="evenodd"/><path d="M355.42 267.052s13.277 23.336 28.298 0l29.103-42.38-85.699-137.065s-13.277-18.374-29.103 0l-29.908 41.441 87.309 138.004zm11.668 66.521c44.928 0 85.699-16.63 115.607-43.185L380.365 129.987l31.651-43.319c13.277-17.435 27.359 0 27.359 0l87.443 138.004c4.158-11.668 6.572-24.945 7.376-37.418L435.218 31.011c-20.788-8.315-43.99-13.277-68.13-13.277-87.04 0-168.046 66.789-168.046 157.987 0 14.082 2.414 28.164 5.767 40.637l49.086-67.326 34.199 52.439c8.181 12.473 0 23.202 0 23.202l-43.319 59.815c32.724 32.724 76.579 49.086 122.313 49.086" fill="#ec1b24" fill-rule="evenodd"/></svg>