<svg xmlns="http://www.w3.org/2000/svg" width="48" height="48" xmlns:v="https://vecta.io/nano"><path fill="#448aff" d="M35 43c-5.514 0-10-4.486-10-10 0-3.562 1.916-6.88 5-8.66l3 5.196A4.01 4.01 0 0 0 31 33c0 2.168 1.832 4 4 4s4-1.832 4-4a4.01 4.01 0 0 0-2-3.464l3-5.196A10.03 10.03 0 0 1 45 33c0 5.514-4.486 10-10 10z"/><path fill="#ff1744" d="M29 22.629l-3-5.196c1.233-.712 2-2.04 2-3.464 0-2.168-1.832-4-4-4s-4 1.832-4 4a4.01 4.01 0 0 0 2 3.464l-3 5.196a10.03 10.03 0 0 1-5-8.661c0-5.514 4.486-10 10-10s10 4.486 10 10a10.03 10.03 0 0 1-5 8.661z"/><path fill="#9ccc65" d="M13.001 43.028c-3.459 0-6.827-1.793-8.678-4.997-2.757-4.776-1.115-10.903 3.66-13.661 3.085-1.781 6.917-1.781 10 0l-3 5.196a4.01 4.01 0 0 0-4 0c-1.878 1.084-2.548 3.586-1.465 5.464s3.586 2.549 5.465 1.464c1.233-.712 2-2.04 2-3.464h6a10.03 10.03 0 0 1-5 8.66c-1.57.908-3.288 1.338-4.982 1.338z"/></svg>