<svg xmlns="http://www.w3.org/2000/svg" fill="#000000" width="24" height="24" xmlns:v="https://vecta.io/nano"><path d="M6.465 2.994a.5.5 0 0 0-.436.32L2.568 9.248a.5.5 0 1 0 .863.504L6.51 4.475l1.328 2.17L4.713 12H1.5a.5.5 0 0 0-.437.742l5 9A.5.5 0 0 0 6.5 22h10.848a.5.5 0 0 0 .664-.393l4.891-8.803a.5.5 0 0 0-.002-.613l-4.949-8.908-.002-.006a.501.501 0 0 0-.012-.02.5.5 0 0 0-.014-.023.501.501 0 0 0-.014-.02.501.501 0 0 0-.029-.039.501.501 0 0 0-.035-.037.5.5 0 0 0-.02-.018.501.501 0 0 0-.018-.014.501.501 0 0 0-.041-.029.501.501 0 0 0-.043-.025.501.501 0 0 0-.047-.02.501.501 0 0 0-.047-.016.501.501 0 0 0-.045-.012.501.501 0 0 0-.004 0 .5.5 0 0 0-.004 0A.501.501 0 0 0 17.455 3H6.574a.5.5 0 0 0-.109-.006zM7.391 4h9.225l-1.199 2H8.613L7.391 4zm10.094.502L21.65 12h-2.342l-1.861-3.723a.5.5 0 1 0-.895.445L18.191 12h-1.902l-1.611-2.822 2.807-4.676zM9.223 7h5.594l-.9 1.5h-3.777L9.223 7zm-.793.613l.924 1.512L7.711 12H5.869L8.43 7.613zM10.75 9.5h2.566l-1.271 2.117L10.75 9.5zm-.801.6l1.162 1.9H8.863l1.086-1.9zm4.139.063L15.137 12h-2.152l1.104-1.838zM2.35 13h2.363l3.313 5.676.004.01a.5.5 0 0 0 .537.314h6.82l1.223 2H6.795L2.35 13zm3.52 0h1.863l1.834 2.75-1.061 1.768L5.869 13zm3.064 0h2.283l-1.082 1.801L8.934 13zm3.957 0h2.176l-1.137 1.703L12.891 13zm3.377 0h1.861l-2.559 4.387-1.064-1.744L16.268 13zm3.02 0h2.363l-4.172 7.508-1.316-2.152L19.287 13zm-7.23.547L14.777 18H9.385l2.672-4.453z"/></svg>